<svg xmlns="http://www.w3.org/2000/svg" xmlns:xlink="http://www.w3.org/1999/xlink" width="62" height="58" version="1.1" viewBox="0 0 62 58"><title>imgly_sticker_emoticons_grin</title><desc>Created with Sketch.</desc><g id="Page-1" fill="none" fill-rule="evenodd" stroke="none" stroke-width="1"><g id="grin" fill-rule="nonzero"><path id="Shape" fill="#F7910B" d="M61.3,34.5 C61.3,47.5 49.4,58 31,58 C12.6,58 0.7,47.5 0.7,34.5 C0.7,21.5 12.6,2 31,2 C49.4,2 61.3,21.5 61.3,34.5 Z"/><path id="Shape" fill="#F7910B" d="M61.3,34.5 C61.3,47.5 49.4,54 31,54 C12.6,54 0.7,47.5 0.7,34.5 C0.7,21.5 12.6,0 31,0 C49.4,0 61.3,21.5 61.3,34.5 Z"/><path id="Shape" fill="#F9A908" d="M31,0 C49.4,0 61.3,21.5 61.3,34.5 C61.3,47.5 49.4,54 31,54"/><path id="Shape" fill="#F9A908" d="M61.3,34.5 C61.3,47.5 49.4,54 31,54 C12.6,54 0.7,47.5 0.7,34.5 C0.7,21.5 12.6,2 31,2 C49.4,2 61.3,21.5 61.3,34.5 Z"/><path id="Shape" fill="#F9C55D" d="M0.7,34.5 C0.7,21.5 12.6,2 31,2"/><path id="Shape" fill="#F7910B" d="M31,2 C49.4,2 61.3,21.5 61.3,34.5 C61.3,47.5 49.4,58 31,58"/><path id="Shape" fill="#EA7103" d="M31,2 C49.4,2 61.3,21.5 61.3,34.5"/><g id="Group" transform="translate(17.000000, 18.000000)"><ellipse id="Oval" cx="3.6" cy="4.7" fill="#EA7103" rx="3.2" ry="3.2"/><ellipse id="Oval" cx="24.4" cy="4.7" fill="#EA7103" rx="3.2" ry="3.2"/><ellipse id="Oval" cx="3.6" cy="3.8" fill="#1E4784" rx="3.2" ry="3.2"/><path id="Shape" fill="#00233F" d="M3.6,0.6 C5.4,0.6 6.8,2 6.8,3.8 C6.8,5.6 5.4,7 3.6,7"/><ellipse id="Oval" cx="24.4" cy="3.8" fill="#1E4784" rx="3.2" ry="3.2"/><path id="Shape" fill="#00233F" d="M24.4,0.6 C26.2,0.6 27.6,2 27.6,3.8 C27.6,5.6 26.2,7 24.4,7"/></g><g id="Group" fill="#19BCA4" transform="translate(18.000000, 11.000000)"><path id="Shape" d="M6.7,2 C6.7,2.9 5.3,2.5 3.4,2.6 C1.6,2.7 0.1,3.2 0.1,2.3 C0.1,1.4 1.5,0.7 3.3,0.6 C5.2,0.5 6.7,1.1 6.7,2 Z"/><path id="Shape" d="M19.3,2 C19.3,2.9 20.7,2.5 22.6,2.6 C24.4,2.7 25.9,3.2 25.9,2.3 C25.9,1.4 24.5,0.7 22.7,0.6 C20.8,0.5 19.3,1.1 19.3,2 Z"/></g><g id="Group" fill="#109DA0" transform="translate(18.000000, 13.000000)"><path id="Shape" d="M6.7,0 C6.7,0.9 5.3,0.5 3.4,0.6 C1.6,0.7 0.1,1.2 0.1,0.3"/><path id="Shape" d="M19.3,0 C19.3,0.9 20.7,0.5 22.6,0.6 C24.4,0.7 25.9,1.2 25.9,0.3"/></g><g id="Group" transform="translate(11.000000, 25.000000)"><path id="Shape" fill="#F9C55D" d="M15.8,2.8 C15.8,4 12.3,3.5 8,3.5 C3.7,3.5 0.2,4.1 0.2,2.8 C0.2,1.6 3.7,0.6 8,0.6 C12.3,0.6 15.8,1.6 15.8,2.8 Z"/><path id="Shape" fill="#F9A908" d="M39.8,2.8 C39.8,4 36.3,3.5 32,3.5 C27.7,3.5 24.2,4.1 24.2,2.8 C24.2,1.6 27.7,0.6 32,0.6 C36.3,0.6 39.8,1.6 39.8,2.8 Z"/></g><ellipse id="Oval" cx="9.3" cy="31.5" fill="#F7910B" rx="1" ry="1"/><ellipse id="Oval" cx="4.8" cy="33.5" fill="#F7910B" rx="1.1" ry="1.1"/><ellipse id="Oval" cx="7.8" cy="29.5" fill="#F7910B" rx="1" ry="1"/><circle id="Oval" cx="12.4" cy="31.3" r="1" fill="#F7910B"/><circle id="Oval" cx="51.6" cy="31.8" r="1" fill="#F9A908"/><circle id="Oval" cx="54.1" cy="33.2" r="1" fill="#F9A908"/><circle id="Oval" cx="48.8" cy="24.4" r="1" fill="#F9A908"/><circle id="Oval" cx="48.3" cy="36" r="1.3" fill="#F9A908"/><circle id="Oval" cx="55.5" cy="36.1" r="1" fill="#F9A908"/><ellipse id="Oval" cx="8.3" cy="35.5" fill="#F7910B" rx="1" ry="1"/><circle id="Oval" cx="9.1" cy="27.1" r="1" fill="#F7910B"/><ellipse id="Oval" cx="3.8" cy="13.3" fill="#F9A908" rx="1.1" ry="1.1"/><ellipse id="Oval" cx="7" cy="9.8" fill="#F9A908" rx="1" ry="1"/><circle id="Oval" cx="58.2" cy="15.7" r="1" fill="#F9A908"/><ellipse id="Oval" cx="57.4" cy="12.8" fill="#F9A908" rx="1" ry="1"/><circle id="Oval" cx="60" cy="13.3" r="1" fill="#F9A908"/><ellipse id="Oval" cx="5" cy="16.3" fill="#F9A908" rx="1" ry="1"/><g id="Group" transform="translate(19.000000, 31.000000)"><path id="Shape" fill="#F7910B" d="M19.4,14.9 C19.4,17.5 16.1,19.6 12,19.6 C7.9,19.6 4.6,17.5 4.6,14.9"/><path id="Shape" fill="#C42260" d="M23.9,0.1 C23.9,6.9 18.6,12.4 12,12.4 C5.4,12.4 0.1,6.9 0.1,0.1"/><path id="Shape" fill="#99144A" d="M23.9,0.1 C23.9,2.4 18.6,4.2 12,4.2 C5.4,4.2 0.1,2.4 0.1,0.1"/><path id="Shape" fill="#E2446E" d="M12,12.3 C15.7,12.3 18.9,10.6 21.1,7.9 C19.7,6.4 17.8,5.4 15.6,5.4 C14.3,5.4 13,5.8 12,6.4 C10.9,5.8 9.7,5.4 8.4,5.4 C6.2,5.4 4.3,6.4 2.9,7.9 C5.1,10.6 8.3,12.3 12,12.3 Z"/></g></g></g></svg>