<svg xmlns="http://www.w3.org/2000/svg" xmlns:xlink="http://www.w3.org/1999/xlink" width="62" height="60" version="1.1" viewBox="0 0 62 60"><title>imgly_sticker_emoticons_sleepy</title><desc>Created with Sketch.</desc><g id="Page-1" fill="none" fill-rule="evenodd" stroke="none" stroke-width="1"><g id="sleepy" fill-rule="nonzero"><g id="Group" transform="translate(0.000000, 1.000000)"><path id="Shape" fill="#F7910B" d="M61.3,34.8 C61.3,47.8 49.4,58.3 31,58.3 C12.6,58.3 0.7,47.8 0.7,34.8 C0.7,21.8 12.6,2.3 31,2.3 C49.4,2.3 61.3,21.8 61.3,34.8 Z"/><path id="Shape" fill="#F7910B" d="M61.3,34.8 C61.3,47.8 49.4,54.3 31,54.3 C12.6,54.3 0.7,47.8 0.7,34.8 C0.7,21.8 12.6,0.3 31,0.3 C49.4,0.3 61.3,21.8 61.3,34.8 Z"/><path id="Shape" fill="#F9A908" d="M31,0.3 C49.4,0.3 61.3,21.8 61.3,34.8 C61.3,47.8 49.4,54.3 31,54.3"/><path id="Shape" fill="#F9A908" d="M61.3,34.8 C61.3,47.8 49.4,54.3 31,54.3 C12.6,54.3 0.7,47.8 0.7,34.8 C0.7,21.8 12.6,2.3 31,2.3 C49.4,2.3 61.3,21.8 61.3,34.8 Z"/><path id="Shape" fill="#F9C55D" d="M0.7,34.8 C0.7,21.8 12.6,2.3 31,2.3"/><path id="Shape" fill="#F7910B" d="M31,2.3 C49.4,2.3 61.3,21.8 61.3,34.8 C61.3,47.8 49.4,58.3 31,58.3"/><path id="Shape" fill="#EA7103" d="M31,2.3 C49.4,2.3 61.3,21.8 61.3,34.8"/><g id="Shape"><g><path fill="#19BCA4" d="M6.9,1.2 C7.2,2 5.7,2.1 4,2.8 C2.3,3.4 1.1,4.4 0.8,3.6 C0.5,2.8 1.6,1.6 3.3,1 C4.9,0.2 6.5,0.4 6.9,1.2 Z" transform="translate(18.000000, 11.000000)"/><path fill="#109DA0" d="M6.9,1.2 C7.2,2 5.7,2.1 4,2.8 C2.3,3.4 1.1,4.4 0.8,3.6" transform="translate(18.000000, 11.000000)"/></g><g><path fill="#19BCA4" d="M0.1,1.2 C-0.2,2 1.3,2.1 3,2.8 C4.7,3.4 5.9,4.4 6.2,3.6 C6.5,2.8 5.4,1.6 3.7,1 C2.1,0.2 0.5,0.4 0.1,1.2 Z" transform="translate(18.000000, 11.000000) translate(19.000000, 0.000000)"/><path fill="#109DA0" d="M0.1,1.2 C-0.2,2 1.3,2.1 3,2.8 C4.7,3.4 5.9,4.4 6.2,3.6" transform="translate(18.000000, 11.000000) translate(19.000000, 0.000000)"/></g></g><g id="Shape"><path fill="#F9C55D" d="M15.8,3.1 C15.8,4.3 12.3,3.8 8,3.8 C3.7,3.8 0.2,4.4 0.2,3.1 C0.2,1.9 3.7,0.9 8,0.9 C12.3,0.9 15.8,1.8 15.8,3.1 Z" transform="translate(11.000000, 25.000000)"/><path fill="#F9A908" d="M39.8,3.1 C39.8,4.3 36.3,3.8 32,3.8 C27.7,3.8 24.2,4.4 24.2,3.1 C24.2,1.9 27.7,0.9 32,0.9 C36.3,0.9 39.8,1.8 39.8,3.1 Z" transform="translate(11.000000, 25.000000)"/></g><ellipse id="Oval" cx="9.3" cy="31.7" fill="#F7910B" rx="1" ry="1"/><ellipse id="Oval" cx="4.8" cy="33.7" fill="#F7910B" rx="1.1" ry="1.1"/><circle id="Oval" cx="7.8" cy="29.7" r="1" fill="#F7910B"/><circle id="Oval" cx="12.4" cy="31.5" r="1" fill="#F7910B"/><circle id="Oval" cx="51.6" cy="32.1" r="1" fill="#F9A908"/><circle id="Oval" cx="54.1" cy="33.5" r="1" fill="#F9A908"/><circle id="Oval" cx="48.8" cy="24.6" r="1" fill="#F9A908"/><ellipse id="Oval" cx="48.3" cy="36.3" fill="#F9A908" rx="1.3" ry="1.3"/><circle id="Oval" cx="55.5" cy="36.3" r="1" fill="#F9A908"/><circle id="Oval" cx="8.3" cy="35.8" r="1" fill="#F7910B"/><circle id="Oval" cx="9.1" cy="27.3" r="1" fill="#F7910B"/><circle id="Oval" cx="3.8" cy="13.6" r="1.1" fill="#F9A908"/><ellipse id="Oval" cx="7" cy="10" fill="#F9A908" rx="1" ry="1"/><circle id="Oval" cx="58.2" cy="16" r="1" fill="#F9A908"/><ellipse id="Oval" cx="57.4" cy="13" fill="#F9A908" rx="1" ry="1"/><circle id="Oval" cx="60" cy="13.6" r="1" fill="#F9A908"/><ellipse id="Oval" cx="5" cy="16.5" fill="#F9A908" rx="1" ry="1"/><g id="Shape"><g><path fill="#1E4784" d="M2.2,0.9 C2.6,1 3,1.2 3.3,1.6 C4.4,3.2 6.7,3.6 8.3,2.5 C9.1,2 10.1,2.2 10.6,2.9 C11.1,3.6 10.9,4.7 10.2,5.2 C7.1,7.4 2.8,6.6 0.6,3.4 C0.1,2.7 0.3,1.6 1,1.1 C1.4,0.9 1.8,0.8 2.2,0.9 Z" transform="translate(14.000000, 18.000000) translate(23.000000, 0.000000)"/><path fill="#02243E" d="M0.6,3.4 C0.1,2.7 0.3,1.6 1,1.1 C1.4,0.8 1.8,0.8 2.2,0.8 C2.6,0.9 3,1.1 3.3,1.5 C4.4,3.1 6.7,3.5 8.3,2.4 C9.1,1.9 10.1,2.1 10.6,2.8 C11.1,3.5 10.9,4.6 10.2,5.1" transform="translate(14.000000, 18.000000) translate(23.000000, 0.000000)"/></g><g><path fill="#1E4784" d="M8.9,0.9 C8.5,1 8.1,1.2 7.8,1.6 C6.7,3.2 4.4,3.6 2.8,2.5 C2,2 1,2.2 0.5,2.9 C-1.99840144e-15,3.6 0.2,4.7 0.9,5.2 C4,7.4 8.3,6.6 10.5,3.4 C11,2.7 10.8,1.6 10.1,1.1 C9.8,0.9 9.4,0.8 8.9,0.9 Z" transform="translate(14.000000, 18.000000)"/><path fill="#02243E" d="M10.6,3.4 C11.1,2.7 10.9,1.6 10.2,1.1 C9.8,0.8 9.4,0.8 9,0.8 C8.6,0.9 8.2,1.1 7.9,1.5 C6.8,3.1 4.5,3.5 2.9,2.4 C2.1,1.9 1.1,2.1 0.6,2.8 C0.1,3.5 0.3,4.6 1,5.1" transform="translate(14.000000, 18.000000)"/></g></g></g><polygon id="Shape" fill="#9011BF" points="48.2 13.6 54.8 4.1 54.8 4.1 48.8 4.1 48.8 1.5 58.8 1.5 58.8 3.3 52.4 12.6 52.4 12.7 58.9 12.7 58.9 15.3 48.2 15.3"/><polygon id="Shape" fill="#BD45F4" points="40.1 8.7 43.5 3.9 43.5 3.9 40.5 3.9 40.5 2.5 45.6 2.5 45.6 3.4 42.3 8.2 42.3 8.2 45.6 8.2 45.6 9.5 40.1 9.5"/><polygon id="Shape" fill="#BD45F4" points="4.8 8.9 9.2 2.5 9.2 2.5 5.2 2.5 5.2 .7 12 .7 12 2 7.7 8.3 7.7 8.4 12 8.4 12 10.1 4.8 10.1"/><polygon id="Shape" fill="#9011BF" points="10 17.9 12.6 14.1 12.6 14.1 10.2 14.1 10.2 13.1 14.2 13.1 14.2 13.8 11.6 17.5 11.6 17.5 14.2 17.5 14.2 18.5 10 18.5"/><g id="Group" transform="translate(23.000000, 27.000000)"><path id="Shape" fill="#F7910B" d="M15.4,5.4 C15.4,8 12.1,10.1 8,10.1 C3.9,10.1 0.6,8 0.6,5.4"/><g id="Shape"><path fill="#C42260" d="M15.7,4.1 C15.7,6.4 12.3,7.3 8.1,7.3 C3.9,7.3 0.5,6.4 0.5,4.1 C0.5,1.8 3.9,0.6 8.1,0.6 C12.3,0.6 15.7,1.7 15.7,4.1 Z"/><path fill="#E2446E" d="M15.5,4.7 C14.6,4.6 13.6,4.5 12.5,4.5 C10.9,4.5 9.3,4.7 8,4.9 C6.7,4.6 5.1,4.5 3.5,4.5 C2.5,4.5 1.5,4.6 0.5,4.7 C1.1,6.5 4.2,7.3 8,7.3 C11.8,7.3 15,6.5 15.5,4.7 Z"/><path fill="#99144A" d="M15.4,3 C14.5,1.4 11.6,0.6 8.1,0.6 C4.6,0.6 1.7,1.4 0.8,3 L15.4,3 Z"/></g><path id="Shape" fill="#5DD6E2" d="M10.3,7.2 C10.3,7.2 13.6,4.5 15.2,5 C15.2,5 16.6,5.3 16.5,7.8 L16.5,18.3 C16.5,18.3 16.7,20.9 15.1,20.6 C13.4,20.2 13.7,10.2 13.7,10.2 C13.7,10.2 12.4,11.8 12.3,10.4 C12.2,8 10.3,7.2 10.3,7.2 Z"/><path id="Shape" fill="#0EB2CC" d="M15.2,5 C15.2,5 16.6,5.3 16.5,7.8 L16.5,18.3 C16.5,18.3 16.7,20.9 15.1,20.6"/></g></g></g></svg>