<svg xmlns="http://www.w3.org/2000/svg" xmlns:xlink="http://www.w3.org/1999/xlink" width="62" height="58" version="1.1" viewBox="0 0 62 58"><title>imgly_sticker_emoticons_not_speaking_to_you</title><desc>Created with Sketch.</desc><g id="Page-1" fill="none" fill-rule="evenodd" stroke="none" stroke-width="1"><g id="not_speaking_to_you" fill-rule="nonzero" transform="translate(-1.000000, 0.000000)"><ellipse id="Oval" cx="11.303" cy="49.289" fill="#EA7103" rx="8.8" ry="8.5" transform="translate(11.303280, 49.289000) rotate(-15.890305) translate(-11.303280, -49.289000)"/><g id="Group" transform="translate(1.000000, 0.000000)"><path id="Shape" fill="#F7910B" d="M61.3,34.5 C61.3,47.5 49.4,58 31,58 C12.6,58 0.7,47.5 0.7,34.5 C0.7,21.5 12.6,2 31,2 C49.4,2 61.3,21.5 61.3,34.5 Z"/><path id="Shape" fill="#F7910B" d="M61.3,34.5 C61.3,47.5 49.4,54 31,54 C12.6,54 0.7,47.5 0.7,34.5 C0.7,21.5 12.6,0 31,0 C49.4,0 61.3,21.5 61.3,34.5 Z"/><path id="Shape" fill="#F9A908" d="M31,0 C49.4,0 61.3,21.5 61.3,34.5 C61.3,47.5 49.4,54 31,54"/><path id="Shape" fill="#F9A908" d="M61.3,34.5 C61.3,47.5 49.4,54 31,54 C12.6,54 0.7,47.5 0.7,34.5 C0.7,21.5 12.6,2 31,2 C49.4,2 61.3,21.5 61.3,34.5 Z"/><path id="Shape" fill="#F9C55D" d="M0.7,34.5 C0.7,21.5 12.6,2 31,2"/><path id="Shape" fill="#F7910B" d="M31,2 C49.4,2 61.3,21.5 61.3,34.5 C61.3,47.5 49.4,58 31,58"/><path id="Shape" fill="#EA7103" d="M31,2 C49.4,2 61.3,21.5 61.3,34.5"/><g id="Shape"><path fill="#19BCA4" d="M10.8,0.7 C9,0.8 7.6,1.5 7.6,2.4 L14.1,2.1 C14.1,1.3 12.6,0.6 10.8,0.7 Z" transform="translate(18.000000, 8.000000)"/><path fill="#19BCA4" d="M30.1,9.7 C28.3,9.6 26.8,10.3 26.8,11.1 L33.3,11.4 C33.3,10.5 31.9,9.8 30.1,9.7 Z" transform="translate(18.000000, 8.000000)"/><path fill="#109DA0" d="M10.8,2.7 C12.6,2.6 14.1,3 14.1,2.1 L7.6,2.4 C7.6,3.3 9,2.8 10.8,2.7 Z" transform="translate(18.000000, 8.000000)"/><path fill="#109DA0" d="M30,11.7 C31.8,11.8 33.3,12.3 33.3,11.4 L26.8,11.1 C26.7,12 28.2,11.6 30,11.7 Z" transform="translate(18.000000, 8.000000)"/><path fill="#F9C55D" d="M8.4,27.3 C4.1,27.3 0.6,28.3 0.6,29.5 C0.6,30.7 4.1,30.2 8.4,30.2 C12.7,30.2 16.2,30.8 16.2,29.5 C16.2,28.3 12.8,27.3 8.4,27.3 Z" transform="translate(18.000000, 8.000000)"/><path fill="#F9A908" d="M32.4,27.3 C28.1,27.3 24.6,28.3 24.6,29.5 C24.6,30.7 28.1,30.2 32.4,30.2 C36.7,30.2 40.2,30.8 40.2,29.5 C40.2,28.3 36.7,27.3 32.4,27.3 Z" transform="translate(18.000000, 8.000000)"/></g><g id="Shape"><g><path fill="#1E4784" d="M2.6,0.6 C3,0.7 3.4,0.9 3.7,1.2 C4.9,2.8 7.2,3.1 8.8,1.8 C9.5,1.2 10.6,1.4 11.1,2.1 C11.7,2.8 11.5,3.9 10.8,4.4 C7.8,6.7 3.4,6.2 1.1,3.2 C0.5,2.5 0.7,1.4 1.4,0.9 C1.7,0.7 2.2,0.6 2.6,0.6 Z" transform="translate(23.000000, 30.000000)"/><path fill="#02243E" d="M1.1,3.3 C0.5,2.6 0.7,1.5 1.4,1 C1.8,0.7 2.2,0.6 2.6,0.7 C3,0.8 3.4,1 3.7,1.3 C4.9,2.9 7.2,3.2 8.8,1.9 C9.5,1.3 10.6,1.5 11.1,2.2 C11.7,2.9 11.5,4 10.8,4.5" transform="translate(23.000000, 30.000000)"/></g><g><path fill="#1E4784" d="M9.2,0.6 C8.8,0.7 8.4,0.9 8.1,1.2 C6.9,2.8 4.6,3.1 3,1.8 C2.3,1.2 1.2,1.4 0.7,2.1 C0.1,2.8 0.3,3.9 1,4.4 C4,6.7 8.4,6.2 10.7,3.2 C11.3,2.5 11.1,1.4 10.4,0.9 C10.1,0.7 9.7,0.6 9.2,0.6 Z" transform="translate(23.000000, 30.000000) translate(19.000000, 0.000000)"/><path fill="#02243E" d="M10.8,3.3 C11.4,2.6 11.2,1.5 10.5,1 C10.1,0.7 9.7,0.6 9.3,0.7 C8.9,0.8 8.5,1 8.2,1.3 C7,2.9 4.7,3.2 3.1,1.9 C2.4,1.3 1.3,1.5 0.8,2.2 C0.2,2.9 0.4,4 1.1,4.5" transform="translate(23.000000, 30.000000) translate(19.000000, 0.000000)"/></g></g><g id="Shape"><path fill="#ED7E11" d="M1.2,5.6 C1.2,3 4.5,0.9 8.6,0.9 C12.7,0.9 16,3 16,5.6" transform="translate(29.000000, 39.000000)"/><path fill="#02243E" d="M15.6,8.4 C15.3,8.4 15,8.3 14.8,8.1 C13.8,7.1 11.3,6.5 8.5,6.5 C5.7,6.5 3.1,7.1 2.2,8.1 C1.8,8.5 1.1,8.5 0.6,8.1 C0.2,7.7 0.2,7 0.6,6.5 C2,5.1 5,4.3 8.5,4.3 C12,4.3 15,5.1 16.4,6.5 C16.8,6.9 16.8,7.6 16.4,8.1 C16.1,8.3 15.8,8.4 15.6,8.4 Z" transform="translate(29.000000, 39.000000)"/></g><circle id="Oval" cx="9.3" cy="31.5" r="1" fill="#F7910B"/><ellipse id="Oval" cx="4.8" cy="33.5" fill="#F7910B" rx="1.1" ry="1.1"/><ellipse id="Oval" cx="7.8" cy="29.5" fill="#F7910B" rx="1" ry="1"/><ellipse id="Oval" cx="12.4" cy="31.3" fill="#F7910B" rx="1" ry="1"/><circle id="Oval" cx="57.6" cy="34.4" r="1" fill="#F9A908"/><circle id="Oval" cx="54.1" cy="33.2" r="1" fill="#F9A908"/><circle id="Oval" cx="58.2" cy="40.2" r="1" fill="#F9A908"/><circle id="Oval" cx="54.4" cy="44" r="1.3" fill="#F9A908"/><circle id="Oval" cx="55.5" cy="36.1" r="1" fill="#F9A908"/><ellipse id="Oval" cx="8.3" cy="35.5" fill="#F7910B" rx="1" ry="1"/><circle id="Oval" cx="9.1" cy="27.1" r="1" fill="#F7910B"/><ellipse id="Oval" cx="3.8" cy="13.3" fill="#F9A908" rx="1.1" ry="1.1"/><ellipse id="Oval" cx="7" cy="9.8" fill="#F9A908" rx="1" ry="1"/><ellipse id="Oval" cx="58.2" cy="15.7" fill="#F9A908" rx="1" ry="1"/><ellipse id="Oval" cx="57.4" cy="12.8" fill="#F9A908" rx="1" ry="1"/><circle id="Oval" cx="60" cy="13.3" r="1" fill="#F9A908"/><ellipse id="Oval" cx="5" cy="16.3" fill="#F9A908" rx="1" ry="1"/></g><g id="Group" transform="translate(1.000000, 23.000000)"><g id="Shape"><path fill="#CCF2E3" d="M17.8,12 C17.4,20 15.6,17.9 13.3,17.8 C11,17.7 9,19.6 9.4,11.6 C9.8,3.6 11.8,0.5 14.1,0.6 C16.5,0.7 18.2,4 17.8,12 Z"/><path fill="#AAD6C3" d="M14.2,0.6 C16.5,0.7 18.2,4 17.8,12 C17.4,20 15.6,17.9 13.3,17.8"/><path fill="#CCF2E3" d="M9.2,16.5 C8.8,24.5 7,22.4 4.7,22.3 C2.4,22.2 0.3,25.3 0.7,17.2 C1.1,9.2 3.3,5 5.6,5.1 C7.9,5.2 9.6,8.5 9.2,16.5 Z"/><path fill="#AAD6C3" d="M5.6,5.1 C7.9,5.2 9.6,8.5 9.2,16.5 C8.8,24.5 7,22.4 4.7,22.3"/><path fill="#CCF2E3" d="M25.9,15.7 C25.5,23.7 23.7,21.6 21.4,21.5 C19.1,21.4 17.1,23.3 17.5,15.3 C17.9,7.3 19.9,4.2 22.2,4.3 C24.6,4.4 26.3,7.7 25.9,15.7 Z"/><path fill="#AAD6C3" d="M22.3,4.3 C24.6,4.4 26.3,7.7 25.9,15.7 C25.5,23.7 23.7,21.6 21.4,21.5"/><path fill="#CCF2E3" d="M25.7,21.1 C25.3,28.5 21.1,34.6 13.6,34.2 C6.1,33.8 0.3,27.4 0.7,20 C1.1,12.6 7.3,10.2 14.8,10.5 C22.3,10.9 26,13.6 25.7,21.1 Z"/><path fill="#AAD6C3" d="M25.7,21.1 C25.3,28.5 21.1,34.6 13.6,34.2 C6.1,33.8 4.1,27.1 4.5,19.7 C4.9,12.3 2.6,10.7 14.4,10.6 C21.9,10.5 26,13.4 25.7,21.1 Z"/><path fill="#CCF2E3" d="M30.5,20.1 C32.1,22.3 29,27.3 23.6,31.1 C18.2,35 12.7,34.5 11.1,32.3 C9.5,30.1 12.5,27 17.9,23.1 C23.2,19.3 28.9,17.9 30.5,20.1 Z"/><path fill="#AAD6C3" d="M30.5,20.1 C32.1,22.3 29,27.3 23.6,31.1 C18.2,35 12.7,34.5 11.1,32.3"/></g><path id="Shape" fill="#CCF2E3" d="M21.5,15.5 C21.6,15.8 21.4,16 21.1,16.1 L7.8,19 C7.5,19.1 7.3,18.9 7.2,18.6 L7.2,18.6 C7.1,18.3 7.3,18.1 7.6,18 L20.9,15 C21.2,15 21.5,15.2 21.5,15.5 L21.5,15.5 Z"/><path id="Shape" fill="#CCF2E3" d="M21.1,18.4 C21.2,18.7 21,18.9 20.7,19 L7.4,22 C7.2,22 7,21.8 6.9,21.5 L6.9,21.5 C6.8,21.3 7,21 7.3,21 L20.6,18 C20.8,17.9 21.1,18.1 21.1,18.4 L21.1,18.4 Z"/><ellipse id="Oval" cx="12.289" cy="3.332" fill="#E7F7EF" rx="1" ry="2.1" transform="translate(12.289110, 3.332390) rotate(-152.245996) translate(-12.289110, -3.332390)"/><path id="Shape" fill="#E7F7EF" d="M3,8 C2.5,9 2.3,9.9 2.6,10.1 C2.9,10.3 3.6,9.6 4.1,8.6 C4.6,7.6 4.8,6.7 4.5,6.5 C4.2,6.3 3.6,7 3,8 Z"/><ellipse id="Oval" cx="20.624" cy="7.233" fill="#E7F7EF" rx="1" ry="2.1" transform="translate(20.624200, 7.232800) rotate(-152.204900) translate(-20.624200, -7.232800)"/><path id="Shape" fill="#E7F7EF" d="M3.5,18.2 C3.4,20.6 2.9,22.6 2.4,22.6 C1.9,22.6 1.5,20.6 1.6,18.2 C1.7,15.8 2.1,15.2 2.7,15.2 C3.2,15.2 3.6,15.8 3.5,18.2 Z"/><path id="Shape" fill="#E7F7EF" d="M23.2,21 C25,20.1 26.7,19.7 27,20.2 C27.3,20.7 26,21.9 24.1,22.8 C22.3,23.7 21.6,23.6 21.4,23.1 C21.2,22.5 21.4,21.9 23.2,21 Z"/></g></g></g></svg>