<svg xmlns="http://www.w3.org/2000/svg" xmlns:xlink="http://www.w3.org/1999/xlink" width="62" height="58" version="1.1" viewBox="0 0 62 58"><title>imgly_sticker_emoticons_impatient</title><desc>Created with Sketch.</desc><g id="Page-1" fill="none" fill-rule="evenodd" stroke="none" stroke-width="1"><g id="impatient" fill-rule="nonzero"><g id="Group"><path id="Shape" fill="#F7910B" d="M61.3,34.5 C61.3,47.5 49.4,58 31,58 C12.6,58 0.7,47.5 0.7,34.5 C0.7,21.5 12.6,2 31,2 C49.4,2 61.3,21.5 61.3,34.5 Z"/><path id="Shape" fill="#F7910B" d="M61.3,34.5 C61.3,47.5 49.4,54 31,54 C12.6,54 0.7,47.5 0.7,34.5 C0.7,21.5 12.6,0 31,0 C49.4,0 61.3,21.5 61.3,34.5 Z"/><path id="Shape" fill="#F9A908" d="M31,0 C49.4,0 61.3,21.5 61.3,34.5 C61.3,47.5 49.4,54 31,54"/><path id="Shape" fill="#F9A908" d="M61.3,34.5 C61.3,47.5 49.4,54 31,54 C12.6,54 0.7,47.5 0.7,34.5 C0.7,21.5 12.6,2 31,2 C49.4,2 61.3,21.5 61.3,34.5 Z"/><path id="Shape" fill="#F9C55D" d="M0.7,34.5 C0.7,21.5 12.6,2 31,2"/><path id="Shape" fill="#F7910B" d="M31,2 C49.4,2 61.3,21.5 61.3,34.5 C61.3,47.5 49.4,58 31,58"/><path id="Shape" fill="#EA7103" d="M31,2 C49.4,2 61.3,21.5 61.3,34.5"/><circle id="Oval" cx="9.3" cy="31.5" r="1" fill="#F7910B"/><circle id="Oval" cx="4.8" cy="33.5" r="1.1" fill="#F7910B"/><circle id="Oval" cx="7.8" cy="29.5" r="1" fill="#F7910B"/><circle id="Oval" cx="12.4" cy="31.3" r="1" fill="#F7910B"/><circle id="Oval" cx="51.6" cy="31.8" r="1" fill="#F9A908"/><circle id="Oval" cx="54.1" cy="33.2" r="1" fill="#F9A908"/><circle id="Oval" cx="48.8" cy="24.4" r="1" fill="#F9A908"/><circle id="Oval" cx="48.3" cy="36" r="1.3" fill="#F9A908"/><circle id="Oval" cx="55.5" cy="36.1" r="1" fill="#F9A908"/><circle id="Oval" cx="8.3" cy="35.5" r="1" fill="#F7910B"/><circle id="Oval" cx="9.1" cy="27.1" r="1" fill="#F7910B"/><circle id="Oval" cx="3.8" cy="13.3" r="1.1" fill="#F9A908"/><circle id="Oval" cx="7" cy="9.8" r="1" fill="#F9A908"/><circle id="Oval" cx="58.2" cy="15.7" r="1" fill="#F9A908"/><circle id="Oval" cx="57.4" cy="12.8" r="1" fill="#F9A908"/><circle id="Oval" cx="60" cy="13.3" r="1" fill="#F9A908"/><circle id="Oval" cx="5" cy="16.3" r="1" fill="#F9A908"/><path id="Shape" fill="#F7910B" d="M38.4,44.7 C38.4,47.3 35.1,51.9 31,51.9 C26.9,51.9 23.6,47.3 23.6,44.7"/><g transform="translate(15.000000, 11.000000)"><circle id="Oval" cx="4.6" cy="7.3" r="3.5" fill="#D87703"/><path id="Shape" fill="#D87703" d="M30.9,7.3 C30.9,9.2 29.3,10.8 27.4,10.8 C25.5,10.8 23.9,9.2 23.9,7.3 C23.9,5.4 25.5,3.8 27.4,3.8 C29.4,3.8 30.9,5.4 30.9,7.3 Z"/><circle id="Oval" cx="4.6" cy="6.3" r="3.5" fill="#1E4784"/><path id="Shape" fill="#00233F" d="M4.6,2.8 C6.5,2.8 8.1,4.4 8.1,6.3 C8.1,8.2 6.5,9.8 4.6,9.8"/><path id="Shape" fill="#1E4784" d="M30.9,6.3 C30.9,8.2 29.3,9.8 27.4,9.8 C25.5,9.8 23.9,8.2 23.9,6.3 C23.9,4.4 25.5,2.8 27.4,2.8 C29.4,2.8 30.9,4.4 30.9,6.3 Z"/><path id="Shape" fill="#00233F" d="M27.4,2.8 C29.3,2.8 30.9,4.4 30.9,6.3 C30.9,8.2 29.3,9.8 27.4,9.8"/><path id="Shape" fill="#F9A908" d="M0.5,5.6 C0.5,3.3 2.3,0.5 4.6,0.5 C6.9,0.5 8.7,3.3 8.7,5.6"/><path id="Shape" fill="#F7910B" d="M23.3,5.6 C23.3,3.3 25.1,0.5 27.4,0.5 C29.7,0.5 31.5,3.3 31.5,5.6"/></g><g id="Shape"><path fill="#F9C55D" d="M15.8,3.1 C15.8,4.3 12.3,3.8 8,3.8 C3.7,3.8 0.2,4.4 0.2,3.1 C0.2,1.8 3.7,0.9 8,0.9 C12.3,0.9 15.8,1.9 15.8,3.1 Z" transform="translate(11.000000, 20.000000)"/><path fill="#F9A908" d="M39.8,3.1 C39.8,4.3 36.3,3.8 32,3.8 C27.7,3.8 24.2,4.4 24.2,3.1 C24.2,1.8 27.7,0.9 32,0.9 C36.3,0.9 39.8,1.9 39.8,3.1 Z" transform="translate(11.000000, 20.000000)"/></g><g id="Shape" fill="#19BCA4"><path d="M10.2,2.5 C10.2,3.6 7.9,3 5.1,2.9 C2.3,2.8 0,3.3 0,2.2 C0,1.1 2.3,0.2 5.1,0.3 C8,0.4 10.3,1.4 10.2,2.5 Z" transform="translate(15.000000, 11.000000)"/><path d="M21.8,2.5 C21.8,3.6 24.1,3 26.9,2.9 C29.7,2.8 32,3.3 32,2.2 C32,1.1 29.7,0.2 26.9,0.3 C24,0.4 21.7,1.4 21.8,2.5 Z" transform="translate(15.000000, 11.000000)"/></g></g><path id="Shape" fill="#02243E" d="M33,45 L29,45 C28.4,45 28,44.6 28,44 C28,43.4 28.4,43 29,43 L33,43 C33.6,43 34,43.4 34,44 C34,44.6 33.6,45 33,45 Z"/></g></g></svg>