<svg xmlns="http://www.w3.org/2000/svg" xmlns:xlink="http://www.w3.org/1999/xlink" width="62" height="61" version="1.1" viewBox="0 0 62 61"><title>imgly_sticker_emoticons_furious</title><desc>Created with Sketch.</desc><g id="Page-1" fill="none" fill-rule="evenodd" stroke="none" stroke-width="1"><g id="furious" fill-rule="nonzero"><g id="Group" transform="translate(0.000000, 2.000000)"><path id="Shape" fill="#F7910B" d="M61.3,34.8 C61.3,47.8 49.4,58.3 31,58.3 C12.6,58.3 0.7,47.8 0.7,34.8 C0.7,21.8 12.6,2.3 31,2.3 C49.4,2.3 61.3,21.9 61.3,34.8 Z"/><path id="Shape" fill="#F7910B" d="M61.3,34.8 C61.3,47.8 49.4,54.3 31,54.3 C12.6,54.3 0.7,47.8 0.7,34.8 C0.7,21.8 12.6,0.3 31,0.3 C49.4,0.3 61.3,21.9 61.3,34.8 Z"/><path id="Shape" fill="#F9A908" d="M31,0.3 C49.4,0.3 61.3,21.8 61.3,34.8 C61.3,47.8 49.4,54.3 31,54.3"/><path id="Shape" fill="#F9A908" d="M61.3,34.8 C61.3,47.8 49.4,54.3 31,54.3 C12.6,54.3 0.7,47.8 0.7,34.8 C0.7,21.8 12.6,2.3 31,2.3 C49.4,2.3 61.3,21.9 61.3,34.8 Z"/><path id="Shape" fill="#F9C55D" d="M0.7,34.8 C0.7,21.8 12.6,2.3 31,2.3"/><path id="Shape" fill="#F7910B" d="M31,2.3 C49.4,2.3 61.3,21.8 61.3,34.8 C61.3,47.8 49.4,58.3 31,58.3"/><path id="Shape" fill="#EA7103" d="M31,2.3 C49.4,2.3 61.3,21.8 61.3,34.8"/><ellipse id="Oval" cx="9.3" cy="31.8" fill="#F7910B" rx="1" ry="1"/><ellipse id="Oval" cx="4.8" cy="33.8" fill="#F7910B" rx="1.1" ry="1.1"/><ellipse id="Oval" cx="7.8" cy="29.8" fill="#F7910B" rx="1" ry="1"/><circle id="Oval" cx="12.4" cy="31.6" r="1" fill="#F7910B"/><circle id="Oval" cx="51.6" cy="32.2" r="1" fill="#F9A908"/><circle id="Oval" cx="54.1" cy="33.6" r="1" fill="#F9A908"/><circle id="Oval" cx="48.8" cy="24.7" r="1" fill="#F9A908"/><circle id="Oval" cx="48.3" cy="36.4" r="1.3" fill="#F9A908"/><circle id="Oval" cx="55.5" cy="36.4" r="1" fill="#F9A908"/><ellipse id="Oval" cx="8.3" cy="35.8" fill="#F7910B" rx="1" ry="1"/><circle id="Oval" cx="9.1" cy="27.4" r="1" fill="#F7910B"/><ellipse id="Oval" cx="3.8" cy="13.7" fill="#F9A908" rx="1.1" ry="1.1"/><ellipse id="Oval" cx="7" cy="10.1" fill="#F9A908" rx="1" ry="1"/><circle id="Oval" cx="58.2" cy="16.1" r="1" fill="#F9A908"/><ellipse id="Oval" cx="57.4" cy="13.1" fill="#F9A908" rx="1" ry="1"/><circle id="Oval" cx="60" cy="13.7" r="1" fill="#F9A908"/><ellipse id="Oval" cx="5" cy="16.6" fill="#F9A908" rx="1" ry="1"/><g id="Shape" fill="#109DA0"><path d="M10.6,6.9 C9.6,8.6 8,6.5 5.3,5 C2.7,3.4 -8.8817842e-16,3 1,1.4 C2,-0.3 4.9,-0.4 7.5,1.1 C10.2,2.6 11.5,5.2 10.6,6.9 Z" transform="translate(16.000000, 13.000000)"/><path d="M19.4,6.9 C20.4,8.6 22,6.5 24.7,5 C27.3,3.5 30,3.1 29,1.4 C28,-0.3 25.1,-0.4 22.5,1.1 C19.8,2.6 18.5,5.2 19.4,6.9 Z" transform="translate(16.000000, 13.000000)"/></g></g><g id="Group" transform="translate(14.000000, 32.000000)"><path id="Shape" fill="#F7910B" d="M9.6,11.6 C9.6,9 12.9,6.9 17,6.9 C21.1,6.9 24.4,9 24.4,11.6"/><g id="Shape" fill="#02243E"><g><path d="M29.4,5.3 C28.8,5.3 28.3,4.8 28.3,4.2 C28.3,2.1 30,0.4 32.1,0.4 C32.7,0.4 33.2,0.9 33.2,1.5 C33.2,2.1 32.7,2.6 32.1,2.6 C31.2,2.6 30.5,3.3 30.5,4.2 C30.5,4.8 30,5.3 29.4,5.3 Z" transform="translate(0.000000, 5.000000)"/><path d="M4.6,5.3 C4,5.3 3.5,4.8 3.5,4.2 C3.5,3.3 2.8,2.6 1.9,2.6 C1.3,2.6 0.8,2.1 0.8,1.5 C0.8,0.9 1.3,0.4 1.9,0.4 C4,0.4 5.7,2.1 5.7,4.2 C5.7,4.8 5.2,5.3 4.6,5.3 Z" transform="translate(0.000000, 5.000000)"/></g><path d="M30.2,8.2 C29.9,8.2 29.6,8.1 29.4,7.9 C26.1,4.6 21.7,2.8 17,2.8 C12.3,2.8 7.9,4.6 4.6,7.9 C4.2,8.3 3.5,8.3 3,7.9 C2.5,7.5 2.6,6.8 3,6.3 C10.7,-1.4 23.2,-1.4 30.9,6.3 C31.3,6.7 31.3,7.4 30.9,7.9 C30.7,8 30.4,8.2 30.2,8.2 Z"/></g></g><g id="Group" transform="translate(16.000000, 21.000000)"><ellipse id="Oval" cx="3.6" cy="5.1" fill="#D87703" rx="3.5" ry="3.5"/><ellipse id="Oval" cx="26.4" cy="5.1" fill="#D87703" rx="3.5" ry="3.5"/><ellipse id="Oval" cx="3.6" cy="4.1" fill="#1E4784" rx="3.5" ry="3.5"/><path id="Shape" fill="#00233F" d="M3.6,0.6 C5.5,0.6 7.1,2.2 7.1,4.1 C7.1,6 5.5,7.6 3.6,7.6"/><ellipse id="Oval" cx="26.4" cy="4.1" fill="#1E4784" rx="3.5" ry="3.5"/><path id="Shape" fill="#00233F" d="M26.4,0.6 C28.3,0.6 29.9,2.2 29.9,4.1 C29.9,6 28.3,7.6 26.4,7.6"/></g><g id="Group" transform="translate(11.000000, 27.000000)"><path id="Shape" fill="#F9C55D" d="M15.8,3.2 C15.8,4.4 12.3,3.9 8,3.9 C3.7,3.9 0.2,4.5 0.2,3.2 C0.2,2 3.7,1 8,1 C12.3,0.9 15.8,1.9 15.8,3.2 Z"/><path id="Shape" fill="#F9A908" d="M39.8,3.2 C39.8,4.4 36.3,3.9 32,3.9 C27.7,3.9 24.2,4.5 24.2,3.2 C24.2,2 27.7,1 32,1 C36.3,1 39.8,1.9 39.8,3.2 Z"/></g><g id="Group" transform="translate(50.000000, 0.000000)"><polygon id="Shape" fill="#81CCB1" points="6.1 24 3.2 24 .9 0 8.4 0"/><polygon id="Shape" fill="#109DA0" points="6.1 24 3.2 24 3.6 0 8.4 0"/><rect id="Rectangle-path" width="5" height="6" x="2" y="26" fill="#81CCB1"/><polygon id="Shape" fill="#109DA0" points="7 32 2 32 3.9 28.6 7 26"/></g></g></g></svg>