<svg xmlns="http://www.w3.org/2000/svg" xmlns:xlink="http://www.w3.org/1999/xlink" width="62" height="58" version="1.1" viewBox="0 0 62 58"><title>imgly_sticker_emoticons_deceased</title><desc>Created with Sketch.</desc><g id="Page-1" fill="none" fill-rule="evenodd" stroke="none" stroke-width="1"><g id="deceased" fill-rule="nonzero"><g id="Group"><path id="Shape" fill="#F7910B" d="M61.3,34.5 C61.3,47.5 49.4,58 31,58 C12.6,58 0.7,47.5 0.7,34.5 C0.7,21.5 12.6,2 31,2 C49.4,2 61.3,21.5 61.3,34.5 Z"/><path id="Shape" fill="#F7910B" d="M61.3,34.5 C61.3,47.5 49.4,54 31,54 C12.6,54 0.7,47.5 0.7,34.5 C0.7,21.5 12.6,0 31,0 C49.4,0 61.3,21.5 61.3,34.5 Z"/><path id="Shape" fill="#F9A908" d="M31,0 C49.4,0 61.3,21.5 61.3,34.5 C61.3,47.5 49.4,54 31,54"/><path id="Shape" fill="#F9A908" d="M61.3,34.5 C61.3,47.5 49.4,54 31,54 C12.6,54 0.7,47.5 0.7,34.5 C0.7,21.5 12.6,2 31,2 C49.4,2 61.3,21.5 61.3,34.5 Z"/><path id="Shape" fill="#F9C55D" d="M0.7,34.5 C0.7,21.5 12.6,2 31,2"/><path id="Shape" fill="#F7910B" d="M31,2 C49.4,2 61.3,21.5 61.3,34.5 C61.3,47.5 49.4,58 31,58"/><path id="Shape" fill="#EA7103" d="M31,2 C49.4,2 61.3,21.5 61.3,34.5"/><g id="Shape" fill="#19BCA4"><path d="M6.7,2 C6.7,2.9 5.3,2.5 3.4,2.6 C1.6,2.7 0.1,3.2 0.1,2.3 C0.1,1.4 1.5,0.7 3.3,0.6 C5.2,0.5 6.7,1.1 6.7,2 Z" transform="translate(18.000000, 11.000000)"/><path d="M19.3,2 C19.3,2.9 20.7,2.5 22.6,2.6 C24.4,2.7 25.9,3.2 25.9,2.3 C25.9,1.4 24.5,0.7 22.7,0.6 C20.8,0.5 19.3,1.1 19.3,2 Z" transform="translate(18.000000, 11.000000)"/></g><g id="Shape" fill="#109DA0"><path d="M6.7,0 C6.7,0.9 5.3,0.5 3.4,0.6 C1.6,0.7 0.1,1.2 0.1,0.3" transform="translate(18.000000, 13.000000)"/><path d="M19.3,0 C19.3,0.9 20.7,0.5 22.6,0.6 C24.4,0.7 25.9,1.2 25.9,0.3" transform="translate(18.000000, 13.000000)"/></g><g id="Shape"><path fill="#F9C55D" d="M15.8,2.8 C15.8,4 12.3,3.5 8,3.5 C3.7,3.5 0.2,4.1 0.2,2.8 C0.2,1.6 3.7,0.6 8,0.6 C12.3,0.6 15.8,1.6 15.8,2.8 Z" transform="translate(11.000000, 25.000000)"/><path fill="#F9A908" d="M39.8,2.8 C39.8,4 36.3,3.5 32,3.5 C27.7,3.5 24.2,4.1 24.2,2.8 C24.2,1.6 27.7,0.6 32,0.6 C36.3,0.6 39.8,1.6 39.8,2.8 Z" transform="translate(11.000000, 25.000000)"/></g><circle id="Oval" cx="9.3" cy="31.5" r="1" fill="#F7910B"/><circle id="Oval" cx="4.8" cy="33.5" r="1.1" fill="#F7910B"/><circle id="Oval" cx="7.8" cy="29.5" r="1" fill="#F7910B"/><circle id="Oval" cx="12.4" cy="31.3" r="1" fill="#F7910B"/><circle id="Oval" cx="51.6" cy="31.8" r="1" fill="#F9A908"/><circle id="Oval" cx="54.1" cy="33.2" r="1" fill="#F9A908"/><circle id="Oval" cx="48.8" cy="24.4" r="1" fill="#F9A908"/><circle id="Oval" cx="48.3" cy="36" r="1.3" fill="#F9A908"/><circle id="Oval" cx="55.5" cy="36.1" r="1" fill="#F9A908"/><circle id="Oval" cx="8.3" cy="35.5" r="1" fill="#F7910B"/><circle id="Oval" cx="9.1" cy="27.1" r="1" fill="#F7910B"/><circle id="Oval" cx="3.8" cy="13.3" r="1.1" fill="#F9A908"/><circle id="Oval" cx="7" cy="9.8" r="1" fill="#F9A908"/><circle id="Oval" cx="58.2" cy="15.7" r="1" fill="#F9A908"/><circle id="Oval" cx="57.4" cy="12.8" r="1" fill="#F9A908"/><circle id="Oval" cx="60" cy="13.3" r="1" fill="#F9A908"/><circle id="Oval" cx="5" cy="16.3" r="1" fill="#F9A908"/><g id="Oval" fill="#00233F"><g transform="translate(16.000000, 16.000000)"><ellipse cx="5.973" cy="5.489" rx="5.9" ry="1.8" transform="translate(5.973050, 5.488550) rotate(45.000000) translate(-5.973050, -5.488550)"/><ellipse cx="6.027" cy="5.489" rx="5.9" ry="1.8" transform="translate(6.026650, 5.488850) rotate(-45.000000) translate(-6.026650, -5.488850)"/></g><g transform="translate(16.000000, 16.000000) translate(18.000000, 0.000000)"><ellipse cx="5.973" cy="5.489" rx="5.9" ry="1.8" transform="translate(5.972650, 5.489050) rotate(45.000000) translate(-5.972650, -5.489050)"/><ellipse cx="6.026" cy="5.488" rx="5.9" ry="1.8" transform="translate(6.026250, 5.488250) rotate(-45.000000) translate(-6.026250, -5.488250)"/></g></g></g><g id="Group" transform="translate(24.000000, 28.000000)"><path id="Shape" fill="#F7910B" d="M12.2,15.4 C12.2,17.8 9.9,19.7 7,19.7 C4.1,19.7 1.8,17.8 1.8,15.4"/><g id="Shape"><path fill="#C42260" d="M13.4,9.5 C13.4,15.6 10.5,18 7,18 C3.5,18 0.6,15.6 0.6,9.5 C0.6,3.4 3.5,0.2 7,0.2 C10.5,0.1 13.4,3.3 13.4,9.5 Z"/><path fill="#E2446E" d="M13.3,11.2 C12.5,10.9 11.7,10.8 10.8,10.8 C9.4,10.8 8.1,11.2 7,11.9 C5.9,11.2 4.6,10.8 3.2,10.8 C2.3,10.8 1.5,11 0.7,11.2 C1.2,16 3.8,18 7,18 C10.2,18 12.8,16 13.3,11.2 Z"/><path fill="#99144A" d="M13.2,7 C12.4,2 9.9,0.1 7,0.1 C4.1,0.1 1.5,2 0.8,7 L13.2,7 Z"/></g></g></g></g></svg>