<svg xmlns="http://www.w3.org/2000/svg" xmlns:xlink="http://www.w3.org/1999/xlink" width="62" height="64" version="1.1" viewBox="0 0 62 64"><title>imgly_sticker_emoticons_skateboard</title><desc>Created with Sketch.</desc><g id="Page-1" fill="none" fill-rule="evenodd" stroke="none" stroke-width="1"><g id="skateboard" fill-rule="nonzero"><g id="Group" transform="translate(20.000000, 55.000000)"><circle id="Oval" cx="4.3" cy="4.3" r="4.2" fill="#7C0A3E"/><ellipse id="Oval" cx="2.6" cy="4.3" fill="#F2E1C2" rx="1" ry="1.8"/><circle id="Oval" cx="32.6" cy="4.3" r="4.2" fill="#7C0A3E"/><ellipse id="Oval" cx="30.8" cy="4.3" fill="#F2E1C2" rx="1" ry="1.8"/></g><g id="Group"><g><path id="Shape" fill="#F7910B" d="M61.3,35 C61.3,48 49.4,58.5 31,58.5 C12.6,58.5 0.7,48 0.7,35 C0.7,22 12.6,2.5 31,2.5 C49.4,2.5 61.3,22 61.3,35 Z"/><path id="Shape" fill="#F7910B" d="M61.3,35 C61.3,48 49.4,54.5 31,54.5 C12.6,54.5 0.7,48 0.7,35 C0.7,22 12.6,0.5 31,0.5 C49.4,0.5 61.3,22 61.3,35 Z"/><path id="Shape" fill="#F9A908" d="M31,0.5 C49.4,0.5 61.3,22 61.3,35 C61.3,48 49.4,54.5 31,54.5"/><path id="Shape" fill="#F9A908" d="M61.3,35 C61.3,48 49.4,54.5 31,54.5 C12.6,54.5 0.7,48 0.7,35 C0.7,22 12.6,2.5 31,2.5 C49.4,2.5 61.3,22 61.3,35 Z"/><path id="Shape" fill="#F9C55D" d="M0.7,35 C0.7,22 12.6,2.5 31,2.5"/><path id="Shape" fill="#F7910B" d="M31,2.5 C49.4,2.5 61.3,22 61.3,35 C61.3,48 49.4,58.5 31,58.5"/><path id="Shape" fill="#EA7103" d="M31,2.5 C49.4,2.5 61.3,22 61.3,35"/><g id="Shape"><path fill="#19BCA4" d="M10.8,0.5 C9,0.6 7.6,1.3 7.6,2.2 L14.1,1.9 C14.1,1.1 12.6,0.4 10.8,0.5 Z" transform="translate(18.000000, 14.000000)"/><path fill="#19BCA4" d="M30.1,0.5 C28.3,0.4 26.8,1.1 26.8,1.9 L33.3,2.2 C33.3,1.3 31.9,0.6 30.1,0.5 Z" transform="translate(18.000000, 14.000000)"/><path fill="#109DA0" d="M10.8,2.5 C12.6,2.4 14.1,2.8 14.1,1.9 L7.6,2.2 C7.6,3.1 9,2.6 10.8,2.5 Z" transform="translate(18.000000, 14.000000)"/><path fill="#109DA0" d="M30,2.5 C31.8,2.6 33.3,3.1 33.3,2.2 L26.8,1.9 C26.7,2.8 28.2,2.4 30,2.5 Z" transform="translate(18.000000, 14.000000)"/><path fill="#F9C55D" d="M8.4,13.3 C4.1,13.3 0.6,14.3 0.6,15.5 C0.6,16.7 4.1,16.2 8.4,16.2 C12.7,16.2 16.2,16.8 16.2,15.5 C16.2,14.2 12.8,13.3 8.4,13.3 Z" transform="translate(18.000000, 14.000000)"/><path fill="#F9A908" d="M32.4,13.3 C28.1,13.3 24.6,14.3 24.6,15.5 C24.6,16.7 28.1,16.2 32.4,16.2 C36.7,16.2 40.2,16.8 40.2,15.5 C40.2,14.2 36.7,13.3 32.4,13.3 Z" transform="translate(18.000000, 14.000000)"/></g><circle id="Oval" cx="9.3" cy="32" r="1" fill="#F7910B"/><circle id="Oval" cx="4.8" cy="34" r="1.1" fill="#F7910B"/><circle id="Oval" cx="7.8" cy="30" r="1" fill="#F7910B"/><circle id="Oval" cx="12.4" cy="31.8" r="1" fill="#F7910B"/><circle id="Oval" cx="57.6" cy="34.9" r="1" fill="#F9A908"/><circle id="Oval" cx="54.1" cy="33.7" r="1" fill="#F9A908"/><circle id="Oval" cx="58.2" cy="40.7" r="1" fill="#F9A908"/><circle id="Oval" cx="54.4" cy="44.5" r="1.3" fill="#F9A908"/><circle id="Oval" cx="55.5" cy="36.6" r="1" fill="#F9A908"/><circle id="Oval" cx="8.3" cy="36" r="1" fill="#F7910B"/><circle id="Oval" cx="9.1" cy="27.6" r="1" fill="#F7910B"/><circle id="Oval" cx="3.8" cy="13.8" r="1.1" fill="#F9A908"/><circle id="Oval" cx="7" cy="10.3" r="1" fill="#F9A908"/><circle id="Oval" cx="58.2" cy="16.2" r="1" fill="#F9A908"/><circle id="Oval" cx="57.4" cy="13.3" r="1" fill="#F9A908"/><circle id="Oval" cx="60" cy="13.8" r="1" fill="#F9A908"/><circle id="Oval" cx="5" cy="16.8" r="1" fill="#F9A908"/><g transform="translate(25.000000, 21.000000)"><circle id="Oval" cx="3.2" cy="4.7" r="3.2" fill="#EA7103"/><circle id="Oval" cx="24" cy="4.7" r="3.2" fill="#EA7103"/><circle id="Oval" cx="3.2" cy="3.8" r="3.2" fill="#1E4784"/><path id="Shape" fill="#00233F" d="M3.2,0.6 C5,0.6 6.4,2 6.4,3.8 C6.4,5.6 5,7 3.2,7"/><circle id="Oval" cx="24" cy="3.8" r="3.2" fill="#1E4784"/><path id="Shape" fill="#00233F" d="M24,0.6 C25.8,0.6 27.2,2 27.2,3.8 C27.2,5.6 25.8,7 24,7"/></g></g><g id="Shape"><path fill="#C42260" d="M21.8,0 C21.8,6.8 16.9,12.2 10.9,12.2 C4.9,12.2 0,6.7 0,0" transform="translate(27.000000, 32.000000)"/><path fill="#99144A" d="M21.8,0 C21.8,2.3 16.9,4.1 10.9,4.1 C4.9,4.1 0,2.3 0,0" transform="translate(27.000000, 32.000000)"/><path fill="#E2446E" d="M10.9,12.2 C14.3,12.2 17.3,10.5 19.3,7.8 C18.1,6.3 16.3,5.3 14.3,5.3 C13.1,5.3 11.9,5.7 11,6.3 C10,5.7 8.9,5.3 7.7,5.3 C5.7,5.3 3.9,6.3 2.7,7.8 C4.5,10.5 7.5,12.2 10.9,12.2 Z" transform="translate(27.000000, 32.000000)"/></g></g><path id="Shape" fill="#19BCA4" d="M61,56.5 C61,57.9 59.9,59 58.5,59 L4.5,59 C3.1,59 2,57.9 2,56.5 L2,56.5 C2,55.1 3.1,54 4.5,54 L58.5,54 C59.9,54 61,55.1 61,56.5 L61,56.5 Z"/><g id="Group" transform="translate(6.000000, 55.000000)"><circle id="Oval" cx="4.6" cy="4.3" r="4.2" fill="#C42260"/><ellipse id="Oval" cx="2.8" cy="4.3" fill="#F2E1C2" rx="1" ry="1.8"/><circle id="Oval" cx="32.8" cy="4.3" r="4.2" fill="#C42260"/><ellipse id="Oval" cx="31.1" cy="4.3" fill="#F2E1C2" rx="1" ry="1.8"/></g></g></g></svg>