<svg xmlns="http://www.w3.org/2000/svg" xmlns:xlink="http://www.w3.org/1999/xlink" width="62" height="58" version="1.1" viewBox="0 0 62 58"><title>imgly_sticker_emoticons_laugh</title><desc>Created with Sketch.</desc><g id="Page-1" fill="none" fill-rule="evenodd" stroke="none" stroke-width="1"><g id="laugh" fill-rule="nonzero"><path id="Shape" fill="#F7910B" d="M61.3,34.5 C61.3,47.5 49.4,58 31,58 C12.6,58 0.7,47.5 0.7,34.5 C0.7,21.5 12.6,2 31,2 C49.4,2 61.3,21.5 61.3,34.5 Z"/><path id="Shape" fill="#F7910B" d="M61.3,34.5 C61.3,47.5 49.4,54 31,54 C12.6,54 0.7,47.5 0.7,34.5 C0.7,21.5 12.6,0 31,0 C49.4,0 61.3,21.5 61.3,34.5 Z"/><path id="Shape" fill="#F9A908" d="M31,0 C49.4,0 61.3,21.5 61.3,34.5 C61.3,47.5 49.4,54 31,54"/><path id="Shape" fill="#F9A908" d="M61.3,34.5 C61.3,47.5 49.4,54 31,54 C12.6,54 0.7,47.5 0.7,34.5 C0.7,21.5 12.6,2 31,2 C49.4,2 61.3,21.5 61.3,34.5 Z"/><path id="Shape" fill="#F9C55D" d="M0.7,34.5 C0.7,21.5 12.6,2 31,2"/><path id="Shape" fill="#F7910B" d="M31,2 C49.4,2 61.3,21.5 61.3,34.5 C61.3,47.5 49.4,58 31,58"/><path id="Shape" fill="#EA7103" d="M31,2 C49.4,2 61.3,21.5 61.3,34.5"/><g id="Group" transform="translate(18.000000, 11.000000)"><g id="Shape"><path fill="#19BCA4" d="M6.9,0.9 C7.2,1.7 5.7,1.8 4,2.5 C2.3,3.1 1.1,4.1 0.8,3.3 C0.5,2.5 1.6,1.3 3.3,0.7 C4.9,-1.11022302e-16 6.5,0.1 6.9,0.9 Z"/><path fill="#109DA0" d="M6.9,0.9 C7.2,1.7 5.7,1.8 4,2.5 C2.3,3.1 1.1,4.1 0.8,3.3"/></g><g id="Shape"><path fill="#19BCA4" d="M0.1,0.9 C-0.2,1.7 1.3,1.8 3,2.5 C4.7,3.1 5.9,4.1 6.2,3.3 C6.5,2.5 5.4,1.3 3.7,0.7 C2.1,-1.11022302e-16 0.5,0.1 0.1,0.9 Z" transform="translate(19.000000, 0.000000)"/><path fill="#109DA0" d="M0.1,0.9 C-0.2,1.7 1.3,1.8 3,2.5 C4.7,3.1 5.9,4.1 6.2,3.3" transform="translate(19.000000, 0.000000)"/></g></g><g id="Group" transform="translate(11.000000, 25.000000)"><path id="Shape" fill="#F9C55D" d="M15.8,2.8 C15.8,4 12.3,3.5 8,3.5 C3.7,3.5 0.2,4.1 0.2,2.8 C0.2,1.6 3.7,0.6 8,0.6 C12.3,0.6 15.8,1.6 15.8,2.8 Z"/><path id="Shape" fill="#F9A908" d="M39.8,2.8 C39.8,4 36.3,3.5 32,3.5 C27.7,3.5 24.2,4.1 24.2,2.8 C24.2,1.6 27.7,0.6 32,0.6 C36.3,0.6 39.8,1.6 39.8,2.8 Z"/></g><path id="Shape" fill="#F9C55D" d="M36.3,29.6 C36.3,30.7 33.9,31.7 31,31.7 C28.1,31.7 25.7,30.8 25.7,29.6"/><ellipse id="Oval" cx="9.3" cy="31.5" fill="#F7910B" rx="1" ry="1"/><ellipse id="Oval" cx="4.8" cy="33.5" fill="#F7910B" rx="1.1" ry="1.1"/><ellipse id="Oval" cx="7.8" cy="29.5" fill="#F7910B" rx="1" ry="1"/><circle id="Oval" cx="12.4" cy="31.3" r="1" fill="#F7910B"/><circle id="Oval" cx="51.6" cy="31.8" r="1" fill="#F9A908"/><circle id="Oval" cx="54.1" cy="33.2" r="1" fill="#F9A908"/><circle id="Oval" cx="48.8" cy="24.4" r="1" fill="#F9A908"/><circle id="Oval" cx="48.3" cy="36" r="1.3" fill="#F9A908"/><circle id="Oval" cx="55.5" cy="36.1" r="1" fill="#F9A908"/><ellipse id="Oval" cx="8.3" cy="35.5" fill="#F7910B" rx="1" ry="1"/><circle id="Oval" cx="9.1" cy="27.1" r="1" fill="#F7910B"/><ellipse id="Oval" cx="3.8" cy="13.3" fill="#F9A908" rx="1.1" ry="1.1"/><ellipse id="Oval" cx="7" cy="9.8" fill="#F9A908" rx="1" ry="1"/><circle id="Oval" cx="58.2" cy="15.7" r="1" fill="#F9A908"/><ellipse id="Oval" cx="57.4" cy="12.8" fill="#F9A908" rx="1" ry="1"/><circle id="Oval" cx="60" cy="13.3" r="1" fill="#F9A908"/><ellipse id="Oval" cx="5" cy="16.3" fill="#F9A908" rx="1" ry="1"/><g id="Group" transform="translate(14.000000, 19.000000)"><g id="Shape"><path fill="#1E4784" d="M8.9,6 C8.5,5.9 8.1,5.7 7.8,5.3 C6.7,3.7 4.4,3.3 2.8,4.4 C2,4.9 1,4.7 0.5,4 C1.74860126e-15,3.3 0.2,2.2 0.9,1.7 C4,-0.5 8.3,0.3 10.5,3.5 C11,4.2 10.8,5.3 10.1,5.8 C9.7,6 9.3,6 8.9,6 Z"/><path fill="#02243E" d="M10.5,3.4 C11,4.1 10.8,5.2 10.1,5.7 C9.7,6 9.3,6 8.9,6 C8.5,5.9 8.1,5.7 7.8,5.3 C6.7,3.7 4.4,3.3 2.8,4.4 C2,4.9 1,4.7 0.5,4 C1.74860126e-15,3.3 0.2,2.2 0.9,1.7"/></g><g id="Shape"><path fill="#1E4784" d="M2.1,6 C2.5,5.9 2.9,5.7 3.2,5.3 C4.3,3.7 6.6,3.3 8.2,4.4 C9,4.9 10,4.7 10.5,4 C11,3.3 10.8,2.2 10.1,1.7 C7,-0.5 2.7,0.3 0.5,3.5 C9.71445147e-16,4.2 0.2,5.3 0.9,5.8 C1.3,6 1.7,6 2.1,6 Z" transform="translate(23.000000, 0.000000)"/><path fill="#02243E" d="M0.5,3.4 C9.71445147e-16,4.1 0.2,5.2 0.9,5.7 C1.3,6 1.7,6 2.1,6 C2.5,5.9 2.9,5.7 3.2,5.3 C4.3,3.7 6.6,3.3 8.2,4.4 C9,4.9 10,4.7 10.5,4 C11,3.3 10.8,2.2 10.1,1.7" transform="translate(23.000000, 0.000000)"/></g></g><path id="Shape" fill="#F7910B" d="M38.2,44.9 C38.2,47.5 34.9,49.6 30.8,49.6 C26.7,49.6 23.4,47.5 23.4,44.9"/><g id="Group" transform="translate(16.000000, 30.000000)"><path id="Shape" fill="#C42260" d="M29.8,0.6 C29.8,9.7 23.2,17.1 15,17.1 C6.8,17.1 0.2,9.7 0.2,0.6"/><path id="Shape" fill="#99144A" d="M29.8,0.6 C29.8,3.7 23.2,6.2 15,6.2 C6.8,6.2 0.2,3.7 0.2,0.6"/><path id="Shape" fill="#E2446E" d="M15,17.1 C19.6,17.1 23.6,14.8 26.3,11.2 C24.6,9.1 22.2,7.8 19.5,7.8 C17.9,7.8 16.3,8.3 15,9.1 C13.7,8.2 12.1,7.8 10.5,7.8 C7.8,7.8 5.4,9.1 3.7,11.2 C6.4,14.8 10.4,17.1 15,17.1 Z"/></g></g></g></svg>